<svg width="26" height="26" viewBox="0 0 26 26" fill="none" xmlns="http://www.w3.org/2000/svg">
<path d="M23.0652 2.53602C22.3837 1.93976 19.6306 0.0443848 13.4984 0.0186739C13.4984 0.0186739 6.26681 -0.395011 2.7415 2.6718C0.77916 4.53338 0.0889001 7.257 0.0160969 10.6338C-0.0567062 14.0106 -0.151137 20.3392 6.28144 22.0549H6.28753L6.28326 24.6733C6.28326 24.6733 6.24214 25.7333 6.97809 25.9496C7.86848 26.2119 8.3909 25.4062 9.24078 24.5376C9.70745 24.0609 10.3517 23.3604 10.837 22.8251C15.2362 23.1763 18.6196 22.3735 19.0037 22.2551C19.892 21.9821 24.9181 21.3711 25.7354 15.0433C26.5795 8.52116 25.3275 4.39558 23.0652 2.53602ZM23.8109 14.5756C23.1209 19.8591 19.0442 20.1913 18.2927 20.4198C17.9732 20.5174 15.0014 21.2186 11.2646 20.9872C11.2646 20.9872 8.48015 24.1727 7.61047 25.0012C7.47462 25.1306 7.315 25.1829 7.20838 25.1572C7.05851 25.1226 7.01739 24.9544 7.01922 24.7086C7.02165 24.3573 7.04298 20.3577 7.04298 20.3577C1.60193 18.9248 1.91903 13.5385 1.98087 10.7181C2.04271 7.89775 2.60137 5.58724 4.26092 4.03303C7.2428 1.47177 13.3854 1.85454 13.3854 1.85454C18.5727 1.87592 21.0583 3.35733 21.635 3.85363C23.5489 5.40755 24.524 9.12638 23.8109 14.5739V14.5756Z" fill="white"/>
<path d="M16.0226 10.8152C15.8389 10.8152 15.6857 10.6786 15.6766 10.5026C15.6181 9.38492 15.064 8.83835 13.9323 8.7826C13.7411 8.77306 13.5942 8.61851 13.604 8.43709C13.614 8.25567 13.7764 8.11585 13.9683 8.12567C15.4627 8.19963 16.2928 9.01024 16.3693 10.4703C16.3787 10.6517 16.2313 10.806 16.04 10.8149C16.0342 10.8152 16.0284 10.8152 16.0226 10.8152Z" fill="white"/>
<path d="M17.8023 11.3811C17.7999 11.3811 17.7971 11.3811 17.7947 11.3811C17.6031 11.3771 17.4514 11.2269 17.4554 11.0452C17.481 9.9211 17.1425 9.01082 16.4203 8.26232C15.6989 7.51555 14.7105 7.10822 13.3988 7.01722C13.2078 7.00393 13.0643 6.8462 13.0783 6.66507C13.0923 6.48394 13.2593 6.34758 13.4497 6.36116C14.9255 6.46372 16.0974 6.95396 16.9323 7.81801C17.7691 8.68525 18.1788 9.77579 18.1493 11.0593C18.1447 11.2384 17.9903 11.3811 17.8023 11.3811Z" fill="white"/>
<path d="M19.624 12.0568C19.4336 12.0568 19.2786 11.9112 19.2773 11.7304C19.2615 9.74604 18.6334 8.16671 17.411 7.03659C16.1861 5.90415 14.6383 5.32378 12.8103 5.31194C12.6187 5.31078 12.4646 5.16229 12.4658 4.98087C12.467 4.80003 12.6221 4.65414 12.8125 4.65414C12.8134 4.65414 12.814 4.65414 12.8149 4.65414C14.8281 4.66743 16.5373 5.31049 17.8947 6.5657C19.2548 7.82293 19.953 9.55914 19.9703 11.7255C19.9719 11.9072 19.8177 12.0554 19.6261 12.0568C19.6261 12.0568 19.6249 12.0568 19.624 12.0568Z" fill="white"/>
<path d="M14.0189 14.8917C14.0189 14.8917 14.5063 14.9307 14.7688 14.6242L15.2806 14.0135C15.5273 13.7107 16.1232 13.5174 16.7065 13.8257C17.1436 14.062 17.5679 14.3191 17.9783 14.5958C18.3654 14.866 19.158 15.4931 19.1608 15.4931C19.5385 15.7956 19.6256 16.2396 19.3685 16.7076C19.3685 16.7102 19.3664 16.7151 19.3664 16.7174C19.0831 17.1831 18.7237 17.6029 18.3012 17.9614C18.2963 17.9637 18.2963 17.966 18.2917 17.9683C17.9247 18.2592 17.5643 18.4244 17.21 18.4643C17.1579 18.473 17.1049 18.4762 17.0519 18.4736C16.8957 18.475 16.7403 18.4522 16.592 18.4065L16.5804 18.3906C16.0348 18.2448 15.124 17.8796 13.607 17.086C12.7291 16.6322 11.8936 16.1087 11.1089 15.5211C10.7156 15.2268 10.3403 14.9113 9.98545 14.5762L9.94768 14.5404L9.9099 14.5046L9.87213 14.4687C9.85934 14.4569 9.84715 14.445 9.83436 14.4329C9.48101 14.0961 9.14836 13.7405 8.83796 13.3675C8.21837 12.6236 7.66641 11.8312 7.18786 10.9989C6.35108 9.55999 5.96604 8.69709 5.81221 8.17883L5.79546 8.16785C5.74733 8.02716 5.72357 7.87983 5.72509 7.73163C5.72235 7.68165 5.7254 7.63139 5.73453 7.5817C5.7787 7.2463 5.95325 6.90426 6.25817 6.55529C6.26061 6.55096 6.26304 6.55096 6.26548 6.54633C6.6432 6.14565 7.08611 5.80476 7.57716 5.53668C7.57959 5.53668 7.58447 5.53437 7.58751 5.53437C8.08129 5.29055 8.54949 5.37317 8.86781 5.72936C8.87025 5.73168 9.53066 6.48364 9.81395 6.85082C10.1058 7.24024 10.3769 7.64294 10.6261 8.05807C10.9511 8.611 10.7473 9.17693 10.4281 9.41035L9.7841 9.89568C9.45907 10.1447 9.50202 10.6069 9.50202 10.6069C9.50202 10.6069 10.4558 14.0291 14.0189 14.8917Z" fill="white"/>
</svg>
